<?xml version="1.0" encoding="UTF-8" standalone="no"?>
<!-- Creator: CorelDRAW X8 -->

<svg
   xmlns:dc="http://purl.org/dc/elements/1.1/"
   xmlns:cc="http://creativecommons.org/ns#"
   xmlns:rdf="http://www.w3.org/1999/02/22-rdf-syntax-ns#"
   xmlns:svg="http://www.w3.org/2000/svg"
   xmlns="http://www.w3.org/2000/svg"
   xmlns:sodipodi="http://sodipodi.sourceforge.net/DTD/sodipodi-0.dtd"
   xmlns:inkscape="http://www.inkscape.org/namespaces/inkscape"
   xml:space="preserve"
   width="210mm"
   height="297mm"
   version="1.1"
   style="shape-rendering:geometricPrecision; text-rendering:geometricPrecision; image-rendering:optimizeQuality; fill-rule:evenodd; clip-rule:evenodd"
   viewBox="0 0 21000 29700"
   id="svg2"
   inkscape:version="0.92.1 r15371"
   sodipodi:docname="FONT_RWR_F18.svg"><metadata
     id="metadata134"><rdf:RDF><cc:Work
         rdf:about=""><dc:format>image/svg+xml</dc:format><dc:type
           rdf:resource="http://purl.org/dc/dcmitype/StillImage" /></cc:Work></rdf:RDF></metadata><sodipodi:namedview
     pagecolor="#ffffff"
     bordercolor="#666666"
     borderopacity="1"
     objecttolerance="10"
     gridtolerance="10"
     guidetolerance="10"
     inkscape:pageopacity="0"
     inkscape:pageshadow="2"
     inkscape:window-width="1920"
     inkscape:window-height="1137"
     id="namedview132"
     showgrid="false"
     inkscape:zoom="1.173864"
     inkscape:cx="228.69661"
     inkscape:cy="829.38875"
     inkscape:window-x="-8"
     inkscape:window-y="-8"
     inkscape:window-maximized="1"
     inkscape:current-layer="svg2" /><defs
     id="defs4"><style
       type="text/css"
       id="style6"><![CDATA[
    .str2 {stroke:#00A0E3;stroke-width:70}
    .str1 {stroke:#00A0E3;stroke-width:70;stroke-linecap:square}
    .str0 {stroke:#00A0E3;stroke-width:70;stroke-linecap:square;stroke-linejoin:bevel}
    .fil0 {fill:none}
   ]]></style></defs><g
     id="U"
     inkscape:label="#g8331"><polyline
       class="fil0 str1"
       points="12988,4717 12988,5955 13235,6203 14226,6203 14473,5955 14473,4717 "
       id="polyline12"
       style="fill:none;stroke:#00a0e3;stroke-width:70;stroke-linecap:square" /></g><g
     id="V"
     inkscape:label="#g8356"><polyline
       class="fil0 str0"
       points="523,6795 1265,8280 2008,6795 "
       id="polyline14"
       style="fill:none;stroke:#00a0e3;stroke-width:70;stroke-linecap:square;stroke-linejoin:bevel" /></g><g
     id="X"
     inkscape:label="#g8349"><line
       class="fil0 str1"
       x1="6163"
       y1="8280"
       x2="4678"
       y2="6795"
       id="line22"
       style="fill:none;stroke:#00a0e3;stroke-width:70;stroke-linecap:square" /><line
       class="fil0 str1"
       x1="4678"
       y1="8280"
       x2="6163"
       y2="6795"
       id="line24"
       style="fill:none;stroke:#00a0e3;stroke-width:70;stroke-linecap:square" /></g><g
     id="Z"
     inkscape:label="#g8342"><polyline
       class="fil0 str0"
       points="10318,8280 8833,8280 10318,6795 8833,6795 "
       id="polyline26"
       style="fill:none;stroke:#00a0e3;stroke-width:70;stroke-linecap:square;stroke-linejoin:bevel" /></g><g
     id="7"
     inkscape:label="#g8376"><polyline
       class="fil0 str0"
       points="10910,10358 12396,8872 10911,8872 "
       id="polyline28"
       style="fill:none;stroke:#00a0e3;stroke-width:70;stroke-linecap:square;stroke-linejoin:bevel" /></g><g
     id="4"
     inkscape:label="#g8366"><polyline
       class="fil0 str0"
       points="6163,9615 4678,9615 5445,8872 5445,10358 "
       id="polyline32"
       style="fill:none;stroke:#00a0e3;stroke-width:70;stroke-linecap:square;stroke-linejoin:bevel" /></g><g
     id="A"
     inkscape:label="#g8255"><polyline
       class="fil0 str0"
       points="523,2048 1265,562 2008,2048 "
       id="polyline10"
       style="fill:none;stroke:#00a0e3;stroke-width:70;stroke-linecap:square;stroke-linejoin:bevel" /><line
       class="fil0 str2"
       x1="894"
       y1="1305"
       x2="1637"
       y2="1305"
       id="line34"
       style="fill:none;stroke:#00a0e3;stroke-width:70" /></g><g
     id="Y"
     inkscape:label="#g8345"><polyline
       class="fil0 str1"
       points="8241,6795 7498,7537 6755,6795 "
       id="polyline30"
       style="fill:none;stroke:#00a0e3;stroke-width:70;stroke-linecap:square" /><line
       class="fil0 str1"
       x1="7498"
       y1="8280"
       x2="7498"
       y2="7537"
       id="line38"
       style="fill:none;stroke:#00a0e3;stroke-width:70;stroke-linecap:square" /></g><g
     id="T"
     inkscape:label="#g8327"><line
       class="fil0 str1"
       x1="10911"
       y1="4717"
       x2="12396"
       y2="4717"
       id="line16"
       style="fill:none;stroke:#00a0e3;stroke-width:70;stroke-linecap:square" /><line
       class="fil0 str1"
       x1="11653"
       y1="6203"
       x2="11653"
       y2="4717"
       id="line40"
       style="fill:none;stroke:#00a0e3;stroke-width:70;stroke-linecap:square" /></g><g
     id="J"
     inkscape:label="#g8296"><polyline
       class="fil0 str1"
       points="6163,2640 6163,3878 5916,4125 4925,4125 4678,3878 4678,3630 "
       id="polyline42"
       style="fill:none;stroke:#00a0e3;stroke-width:70;stroke-linecap:square" /></g><g
     id="H"
     inkscape:label="#g8304"><path
       class="fil0 str1"
       d="m 523,4125 0,-1485 m 1485,0 0,1485"
       id="path18"
       inkscape:connector-curvature="0"
       style="fill:none;stroke:#00a0e3;stroke-width:70;stroke-linecap:square" /><line
       class="fil0 str1"
       x1="523"
       y1="3382"
       x2="2008"
       y2="3382"
       id="line44"
       style="fill:none;stroke:#00a0e3;stroke-width:70;stroke-linecap:square" /></g><g
     id="D"
     inkscape:label="#g8267"><polygon
       class="fil0 str1"
       points="8241,810 7993,562 6755,562 6755,1305 6755,2048 7993,2048 8241,1800 8241,1552 8241,1305 8241,1057 "
       id="polygon54"
       style="fill:none;stroke:#00a0e3;stroke-width:70;stroke-linecap:square" /></g><g
     id="L"
     inkscape:label="#g8287"><polyline
       class="fil0 str1"
       points="8832,2640 8833,3382 8832,4125 10318,4125 "
       id="polyline56"
       style="fill:none;stroke:#00a0e3;stroke-width:70;stroke-linecap:square" /></g><g
     id="1"
     inkscape:label="#g8334"><line
       class="fil0 str1"
       x1="13359"
       y1="8280"
       x2="14102"
       y2="8280"
       id="line58"
       style="fill:none;stroke:#00a0e3;stroke-width:70;stroke-linecap:square" /><polyline
       class="fil0 str0"
       points="13730,8280 13730,6795 13483,7042 "
       id="polyline60"
       style="fill:none;stroke:#00a0e3;stroke-width:70;stroke-linecap:square;stroke-linejoin:bevel" /></g><g
     id="E"
     inkscape:label="#g8270"><line
       class="fil0 str1"
       x1="8833"
       y1="1305"
       x2="9575"
       y2="1305"
       id="line46"
       style="fill:none;stroke:#00a0e3;stroke-width:70;stroke-linecap:square" /><polyline
       class="fil0 str1"
       points="10318,562 8832,562 8833,1305 8832,2048 10318,2048 "
       id="polyline62"
       style="fill:none;stroke:#00a0e3;stroke-width:70;stroke-linecap:square" /></g><g
     id="F"
     inkscape:label="#g8274"><line
       class="fil0 str1"
       x1="10910"
       y1="1305"
       x2="11653"
       y2="1305"
       id="line48"
       style="fill:none;stroke:#00a0e3;stroke-width:70;stroke-linecap:square" /><polyline
       class="fil0 str1"
       points="12396,562 10910,562 10910,1305 10910,2048 "
       id="polyline64"
       style="fill:none;stroke:#00a0e3;stroke-width:70;stroke-linecap:square" /></g><g
     id="G"
     inkscape:label="#g8278"><polyline
       class="fil0 str1"
       points="14473,810 14226,562 13235,562 12987,810 12988,1305 12987,1800 13235,2048 14226,2048 14473,1800 14473,1305 13730,1305 "
       id="polyline66"
       style="fill:none;stroke:#00a0e3;stroke-width:70;stroke-linecap:square" /></g><g
     id="O"
     inkscape:label="#g8308"><polygon
       class="fil0 str1"
       points="770,4717 522,4965 523,5460 522,5955 770,6203 1761,6203 2008,5955 2008,5460 2008,4965 1761,4717 "
       id="polygon68"
       style="fill:none;stroke:#00a0e3;stroke-width:70;stroke-linecap:square" /></g><g
     id="P"
     inkscape:label="#g8311"><line
       class="fil0 str1"
       x1="2600"
       y1="6203"
       x2="2600"
       y2="4717"
       id="line20"
       style="fill:none;stroke:#00a0e3;stroke-width:70;stroke-linecap:square" /><polyline
       class="fil0 str1"
       points="2600,4717 3838,4717 4086,4965 4086,5212 3838,5460 2600,5460 "
       id="polyline72"
       style="fill:none;stroke:#00a0e3;stroke-width:70;stroke-linecap:square" /></g><g
     id="C"
     inkscape:label="#g8264"><polyline
       class="fil0 str1"
       points="6163,810 5916,562 4925,562 4678,810 4678,1305 4678,1800 4925,2048 5916,2048 6163,1800 "
       id="polyline74"
       style="fill:none;stroke:#00a0e3;stroke-width:70;stroke-linecap:square" /></g><g
     id="S"
     inkscape:label="#g8324"><polyline
       class="fil0 str1"
       points="10318,4965 10071,4717 9080,4717 8833,4965 8833,5212 9080,5460 10071,5460 10318,5707 10318,5955 10071,6203 9080,6203 8833,5955 "
       id="polyline78"
       style="fill:none;stroke:#00a0e3;stroke-width:70;stroke-linecap:square" /></g><g
     id="2"
     inkscape:label="#g8359"><polyline
       class="fil0 str0"
       points="523,9120 770,8872 1761,8872 2008,9120 2008,9367 1761,9615 770,9615 523,9862 522,10358 2008,10358 "
       id="polyline80"
       style="fill:none;stroke:#00a0e3;stroke-width:70;stroke-linecap:square;stroke-linejoin:bevel" /></g><g
     id="3"
     inkscape:label="#g8362"><line
       class="fil0 str1"
       x1="3838"
       y1="9615"
       x2="3343"
       y2="9615"
       id="line82"
       style="fill:none;stroke:#00a0e3;stroke-width:70;stroke-linecap:square" /><polyline
       class="fil0 str1"
       points="2600,9120 2848,8872 3838,8872 4086,9120 4086,9367 3838,9615 4086,9862 4086,10110 3838,10358 2848,10358 2600,10110 "
       id="polyline84"
       style="fill:none;stroke:#00a0e3;stroke-width:70;stroke-linecap:square" /></g><g
     id="5"
     inkscape:label="#g8369"><polyline
       class="fil0 str1"
       points="8241,8872 6755,8872 6755,9615 7003,9615 7993,9615 8241,9862 8241,10110 7993,10358 7003,10358 6755,10110 "
       id="polyline86"
       style="fill:none;stroke:#00a0e3;stroke-width:70;stroke-linecap:square" /></g><g
     id="R"
     inkscape:label="#g8319"><line
       class="fil0 str1"
       x1="6755"
       y1="6203"
       x2="6755"
       y2="4717"
       id="line52"
       style="fill:none;stroke:#00a0e3;stroke-width:70;stroke-linecap:square" /><line
       class="fil0 str1"
       x1="6755"
       y1="5460"
       x2="7498"
       y2="5460"
       id="line92"
       style="fill:none;stroke:#00a0e3;stroke-width:70;stroke-linecap:square" /><polyline
       class="fil0 str1"
       points="8241,6203 7498,5460 7993,5460 8241,5212 8241,4965 7993,4717 6755,4717 "
       id="polyline94"
       style="fill:none;stroke:#00a0e3;stroke-width:70;stroke-linecap:square" /></g><g
     id="B"
     inkscape:label="#g8259"><polyline
       class="fil0 str1"
       points="2600,1305 2600,562 3838,562 4086,810 4086,1057 3838,1305 "
       id="polyline50"
       style="fill:none;stroke:#00a0e3;stroke-width:70;stroke-linecap:square" /><polyline
       class="fil0 str1"
       points="2600,1305 2600,2048 3838,2048 4086,1800 4086,1552 3838,1305 "
       id="polyline90"
       style="fill:none;stroke:#00a0e3;stroke-width:70;stroke-linecap:square" /><line
       class="fil0 str1"
       x1="2600"
       y1="1305"
       x2="3838"
       y2="1305"
       id="line96"
       style="fill:none;stroke:#00a0e3;stroke-width:70;stroke-linecap:square" /></g><g
     id="6"
     inkscape:label="#g8372"><polyline
       class="fil0 str0"
       points="8832,9862 8832,9367 8832,9120 9080,8872 10071,8872 10318,9120 "
       id="polyline98"
       style="fill:none;stroke:#00a0e3;stroke-width:70;stroke-linecap:square;stroke-linejoin:bevel" /><polygon
       class="fil0 str1"
       points="10071,9615 10318,9862 10318,10110 10071,10358 9080,10358 8833,10110 8833,9862 9080,9615 "
       id="polygon100"
       style="fill:none;stroke:#00a0e3;stroke-width:70;stroke-linecap:square" /></g><g
     id="M-alt"
     inkscape:label="#g8383"><polyline
       class="fil0 str0"
       points="4086,12435 4086,10950 3343,12437 2600,10950 2600,12435 "
       id="polyline108"
       style="fill:none;stroke:#00a0e3;stroke-width:70;stroke-linecap:square;stroke-linejoin:bevel" /></g><g
     id="M"
     inkscape:label="#g8284"><polyline
       class="fil0 str0"
       points="12397,4125 12397,2640 11654,3384 10911,2640 10911,4125 "
       id="polyline110"
       style="fill:none;stroke:#00a0e3;stroke-width:70;stroke-linecap:square;stroke-linejoin:bevel" /></g><g
     id="N"
     inkscape:label="#g8281"><polyline
       class="fil0 str0"
       points="14473,2640 14473,4125 12987,2640 12987,4125 "
       id="polyline112"
       style="fill:none;stroke:#00a0e3;stroke-width:70;stroke-linecap:square;stroke-linejoin:bevel" /></g><g
     id="Q"
     inkscape:label="#g8315"><polygon
       class="fil0 str1"
       points="4925,4717 4677,4965 4678,5460 4677,5955 4925,6203 5916,6203 6039,6079 6163,5955 6163,5460 6163,4965 5916,4717 "
       id="polygon70"
       style="fill:none;stroke:#00a0e3;stroke-width:70;stroke-linecap:square" /><line
       class="fil0 str1"
       x1="6163"
       y1="6203"
       x2="5916"
       y2="5955"
       id="line114"
       style="fill:none;stroke:#00a0e3;stroke-width:70;stroke-linecap:square" /></g><g
     id="8"
     inkscape:label="#g8379"><polygon
       class="fil0 str1"
       points="14226,9615 14473,9862 14473,10110 14226,10358 13235,10358 12988,10110 12988,9862 13235,9615 "
       id="polygon102"
       style="fill:none;stroke:#00a0e3;stroke-width:70;stroke-linecap:square" /><polygon
       class="fil0 str1"
       points="14226,8872 14473,9120 14473,9367 14226,9615 13235,9615 12988,9367 12988,9120 13235,8872 "
       id="polygon116"
       style="fill:none;stroke:#00a0e3;stroke-width:70;stroke-linecap:square" /></g><g
     id="9"
     inkscape:label="#g8386"><polyline
       class="fil0 str1"
       points="2008,11445 2008,11940 2008,12188 1761,12435 770,12435 523,12188 "
       id="polyline104"
       style="fill:none;stroke:#00a0e3;stroke-width:70;stroke-linecap:square" /><polygon
       class="fil0 str1"
       points="1761,10950 2008,11197 2008,11445 1761,11692 770,11692 523,11445 523,11197 770,10950 "
       id="polygon118"
       style="fill:none;stroke:#00a0e3;stroke-width:70;stroke-linecap:square" /></g><g
     id="K"
     inkscape:label="#g8290"><line
       class="fil0 str1"
       x1="6755"
       y1="3630"
       x2="6755"
       y2="2640"
       id="line76"
       style="fill:none;stroke:#00a0e3;stroke-width:70;stroke-linecap:square" /><line
       class="fil0 str1"
       x1="6755"
       y1="3630"
       x2="6755"
       y2="4125"
       id="line106"
       style="fill:none;stroke:#00a0e3;stroke-width:70;stroke-linecap:square" /><polyline
       class="fil0 str1"
       points="8241,2640 7498,3382 8241,4125 "
       id="polyline120"
       style="fill:none;stroke:#00a0e3;stroke-width:70;stroke-linecap:square" /><line
       class="fil0 str1"
       x1="6755"
       y1="3382"
       x2="7498"
       y2="3382"
       id="line122"
       style="fill:none;stroke:#00a0e3;stroke-width:70;stroke-linecap:square" /></g><g
     id="0"
     inkscape:label="#g8338"><polygon
       class="fil0 str1"
       points="12396,7042 12148,6795 11158,6795 10910,7042 10910,7537 10910,8033 11158,8280 12148,8280 12396,8033 12396,7537 "
       id="polygon88"
       style="fill:none;stroke:#00a0e3;stroke-width:70;stroke-linecap:square" /><line
       class="fil0 str0"
       x1="10910"
       y1="8281"
       x2="12396"
       y2="6795"
       id="line124"
       style="fill:none;stroke:#00a0e3;stroke-width:70;stroke-linecap:square;stroke-linejoin:bevel" /></g><g
     id="W"
     inkscape:label="#g8353"><polyline
       class="fil0 str0"
       points="4087,6795 4087,8281 3345,7537 2602,8281 2602,6795 "
       id="polyline126"
       style="fill:none;stroke:#00a0e3;stroke-width:70;stroke-linecap:square;stroke-linejoin:bevel" /></g><g
     id="I"
     inkscape:label="#g8299"><line
       class="fil0 str1"
       x1="3343"
       y1="4125"
       x2="3343"
       y2="2640"
       id="line36"
       style="fill:none;stroke:#00a0e3;stroke-width:70;stroke-linecap:square" /><line
       class="fil0 str1"
       x1="2972"
       y1="4125"
       x2="3714"
       y2="4125"
       id="line128"
       style="fill:none;stroke:#00a0e3;stroke-width:70;stroke-linecap:square" /><line
       class="fil0 str1"
       x1="2972"
       y1="2640"
       x2="3714"
       y2="2640"
       id="line130"
       style="fill:none;stroke:#00a0e3;stroke-width:70;stroke-linecap:square" /></g></svg>